<svg xmlns="http://www.w3.org/2000/svg" xmlns:xlink="http://www.w3.org/1999/xlink" width="190" zoomAndPan="magnify" viewBox="0 0 142.5 105.749997" height="141" preserveAspectRatio="xMidYMid meet" version="1.0"><defs><g/><clipPath id="d68a022fb6"><path d="M 0 0.0585938 L 142 0.0585938 L 142 42 L 0 42 Z M 0 0.0585938 " clip-rule="nonzero"/></clipPath><clipPath id="05c421e211"><path d="M 0 64 L 142 64 L 142 105.441406 L 0 105.441406 Z M 0 64 " clip-rule="nonzero"/></clipPath></defs><g clip-path="url(#d68a022fb6)"><path fill="#ffffff" d="M 128.769531 41.015625 C 133.332031 41.011719 137.867188 40.636719 142.371094 39.894531 C 139.503906 39.160156 136.585938 38.785156 133.625 38.773438 C 128.769531 38.472656 123.3125 38.023438 121.445312 37.726562 C 118.304688 37.277344 118.082031 37.125 117.109375 33.910156 C 116.0625 30.390625 116.214844 10.113281 117.257812 7.570312 C 118.703125 6.195312 120.371094 5.195312 122.265625 4.578125 C 123.835938 4.054688 125.304688 3.332031 126.675781 2.40625 C 126.675781 0.6875 109.785156 0.386719 106.574219 2.03125 C 104.253906 3.230469 104.253906 3.230469 95.960938 21.1875 C 92.671875 28.371094 89.53125 34.730469 89.085938 35.253906 C 86.691406 38.175781 84.078125 38.621094 70.324219 38.472656 C 55.453125 38.324219 53.585938 37.875 51.492188 33.683594 C 50.746094 32.410156 48.128906 26.5 45.589844 20.664062 C 39.460938 6.671875 37.441406 3.378906 34.304688 2.035156 C 31.464844 0.835938 17.863281 0.613281 16.066406 1.734375 C 14.722656 2.558594 14.796875 2.632812 19.953125 4.652344 C 21.773438 5.257812 23.367188 6.230469 24.738281 7.570312 C 25.289062 11.316406 25.585938 15.082031 25.632812 18.871094 C 26.007812 29.867188 25.035156 36.453125 22.945312 37.277344 C 22.273438 37.5 17.039062 38.101562 11.285156 38.550781 C 7.65625 38.707031 4.042969 39.058594 0.449219 39.597656 C 0.300781 39.746094 0.375 40.121094 0.671875 40.496094 C 1.421875 41.167969 111.355469 41.691406 128.769531 41.015625 Z M 94.765625 31.589844 C 98.5 23.507812 106.722656 6.894531 106.871094 7.195312 C 106.945312 7.269531 106.722656 13.707031 106.496094 21.488281 C 105.898438 37.425781 105.824219 37.648438 100.21875 37.648438 C 98.242188 37.683594 96.273438 37.832031 94.316406 38.097656 L 91.476562 38.621094 Z M 31.914062 13.332031 C 34.078125 17.445312 37.441406 24.703125 39.3125 29.417969 C 41.253906 34.132812 42.75 38.097656 42.675781 38.171875 C 38.796875 38.164062 34.960938 37.765625 31.164062 36.976562 C 30.492188 36.601562 29.445312 27.023438 28.398438 11.835938 L 28.027344 5.847656 Z M 31.914062 13.332031 " fill-opacity="1" fill-rule="nonzero"/></g><g clip-path="url(#05c421e211)"><path fill="#ffffff" d="M 141.25 65.636719 C 139.082031 63.988281 3.585938 64.0625 1.421875 65.710938 C 0.0742188 66.757812 0.0742188 66.757812 2.242188 66.832031 C 6.652344 66.90625 21.898438 68.328125 23.019531 68.777344 C 25.035156 69.527344 26.007812 76.335938 25.632812 86.734375 C 25.65625 90.523438 25.257812 94.265625 24.4375 97.960938 C 23.035156 99.507812 21.339844 100.605469 19.355469 101.253906 C 15.695312 102.75 15.320312 103.046875 16.589844 103.796875 C 18.011719 104.695312 45.664062 104.769531 46.484375 103.945312 C 47.382812 103.125 46.109375 102.675781 41.777344 102.300781 C 34.378906 101.703125 32.507812 101.253906 30.9375 99.683594 C 29.667969 98.410156 29.519531 97.136719 29.519531 84.867188 C 29.519531 66.832031 28.921875 67.65625 43.421875 67.433594 C 56.945312 67.28125 57.695312 67.65625 62.105469 76.636719 C 67.335938 87.335938 68.90625 87.335938 74.0625 76.859375 C 76.601562 71.773438 78.171875 69.453125 79.667969 68.628906 C 81.234375 67.882812 84.597656 67.582031 92.296875 67.582031 C 102.460938 67.582031 102.910156 67.65625 104.628906 69.453125 C 106.496094 71.25 106.496094 71.472656 106.496094 84.195312 C 106.496094 100.132812 106.796875 99.53125 97.902344 102.75 C 93.867188 104.246094 97.304688 104.921875 110.308594 105.144531 C 121.890625 105.292969 127.421875 104.84375 127.421875 103.574219 C 126.234375 102.679688 124.914062 102.082031 123.460938 101.777344 C 116.511719 99.609375 116.734375 99.980469 116.363281 87.1875 C 116.0625 78.132812 116.289062 75.289062 117.257812 72.222656 L 118.53125 68.480469 L 122.789062 68.03125 C 125.105469 67.804688 130.5625 67.433594 134.824219 67.132812 C 141.699219 66.683594 142.519531 66.53125 141.25 65.636719 Z M 73.167969 71.398438 C 71.074219 75.660156 70.847656 75.660156 67.710938 70.347656 L 65.992188 67.582031 L 75.109375 67.582031 Z M 73.167969 71.398438 " fill-opacity="1" fill-rule="nonzero"/></g><g fill="#ffffff" fill-opacity="1"><g transform="translate(21.730463, 56.249371)"><g><path d="M 9.78125 -8.171875 L 9.78125 0 L 8.4375 0 L 8.4375 -5.28125 C 8.4375 -5.488281 8.445312 -5.71875 8.46875 -5.96875 L 6 -1.328125 C 5.882812 -1.097656 5.707031 -0.984375 5.46875 -0.984375 L 5.25 -0.984375 C 5.007812 -0.984375 4.832031 -1.097656 4.71875 -1.328125 L 2.21875 -5.984375 C 2.226562 -5.859375 2.234375 -5.734375 2.234375 -5.609375 C 2.242188 -5.492188 2.25 -5.382812 2.25 -5.28125 L 2.25 0 L 0.90625 0 L 0.90625 -8.171875 L 2.0625 -8.171875 C 2.125 -8.171875 2.179688 -8.171875 2.234375 -8.171875 C 2.285156 -8.171875 2.328125 -8.160156 2.359375 -8.140625 C 2.398438 -8.128906 2.4375 -8.101562 2.46875 -8.0625 C 2.5 -8.03125 2.53125 -7.988281 2.5625 -7.9375 L 5.015625 -3.390625 C 5.078125 -3.273438 5.132812 -3.148438 5.1875 -3.015625 C 5.25 -2.890625 5.304688 -2.757812 5.359375 -2.625 C 5.410156 -2.757812 5.460938 -2.890625 5.515625 -3.015625 C 5.578125 -3.148438 5.640625 -3.28125 5.703125 -3.40625 L 8.109375 -7.9375 C 8.140625 -7.988281 8.171875 -8.03125 8.203125 -8.0625 C 8.242188 -8.101562 8.28125 -8.128906 8.3125 -8.140625 C 8.351562 -8.160156 8.398438 -8.171875 8.453125 -8.171875 C 8.503906 -8.171875 8.5625 -8.171875 8.625 -8.171875 Z M 9.78125 -8.171875 "/></g></g></g><g fill="#ffffff" fill-opacity="1"><g transform="translate(32.417047, 56.249371)"><g><path d="M 2.140625 -5.796875 L 2.140625 0 L 0.734375 0 L 0.734375 -5.796875 Z M 2.328125 -7.5 C 2.328125 -7.375 2.300781 -7.257812 2.25 -7.15625 C 2.207031 -7.050781 2.144531 -6.957031 2.0625 -6.875 C 1.976562 -6.800781 1.878906 -6.738281 1.765625 -6.6875 C 1.660156 -6.644531 1.546875 -6.625 1.421875 -6.625 C 1.304688 -6.625 1.191406 -6.644531 1.078125 -6.6875 C 0.972656 -6.738281 0.878906 -6.800781 0.796875 -6.875 C 0.722656 -6.957031 0.660156 -7.050781 0.609375 -7.15625 C 0.566406 -7.257812 0.546875 -7.375 0.546875 -7.5 C 0.546875 -7.625 0.566406 -7.738281 0.609375 -7.84375 C 0.660156 -7.957031 0.722656 -8.050781 0.796875 -8.125 C 0.878906 -8.207031 0.972656 -8.269531 1.078125 -8.3125 C 1.191406 -8.363281 1.304688 -8.390625 1.421875 -8.390625 C 1.546875 -8.390625 1.660156 -8.363281 1.765625 -8.3125 C 1.878906 -8.269531 1.976562 -8.207031 2.0625 -8.125 C 2.144531 -8.050781 2.207031 -7.957031 2.25 -7.84375 C 2.300781 -7.738281 2.328125 -7.625 2.328125 -7.5 Z M 2.328125 -7.5 "/></g></g></g><g fill="#ffffff" fill-opacity="1"><g transform="translate(35.289422, 56.249371)"><g><path d="M 2.09375 -8.40625 L 2.09375 -3.59375 L 2.34375 -3.59375 C 2.4375 -3.59375 2.507812 -3.601562 2.5625 -3.625 C 2.625 -3.65625 2.679688 -3.707031 2.734375 -3.78125 L 4.1875 -5.5625 C 4.238281 -5.632812 4.300781 -5.691406 4.375 -5.734375 C 4.445312 -5.773438 4.546875 -5.796875 4.671875 -5.796875 L 5.9375 -5.796875 L 4.140625 -3.640625 C 4.015625 -3.472656 3.875 -3.347656 3.71875 -3.265625 C 3.800781 -3.203125 3.875 -3.132812 3.9375 -3.0625 C 4 -2.988281 4.054688 -2.90625 4.109375 -2.8125 L 6.046875 0 L 4.78125 0 C 4.675781 0 4.582031 -0.015625 4.5 -0.046875 C 4.425781 -0.0859375 4.359375 -0.15625 4.296875 -0.25 L 2.828125 -2.453125 C 2.773438 -2.535156 2.71875 -2.585938 2.65625 -2.609375 C 2.601562 -2.640625 2.519531 -2.65625 2.40625 -2.65625 L 2.09375 -2.65625 L 2.09375 0 L 0.6875 0 L 0.6875 -8.40625 Z M 2.09375 -8.40625 "/></g></g></g><g fill="#ffffff" fill-opacity="1"><g transform="translate(41.333848, 56.249371)"><g><path d="M 4.421875 -3.5625 C 4.421875 -3.75 4.394531 -3.921875 4.34375 -4.078125 C 4.300781 -4.242188 4.226562 -4.382812 4.125 -4.5 C 4.019531 -4.625 3.890625 -4.71875 3.734375 -4.78125 C 3.578125 -4.851562 3.394531 -4.890625 3.1875 -4.890625 C 2.78125 -4.890625 2.460938 -4.773438 2.234375 -4.546875 C 2.003906 -4.316406 1.859375 -3.988281 1.796875 -3.5625 Z M 1.765625 -2.71875 C 1.785156 -2.425781 1.835938 -2.171875 1.921875 -1.953125 C 2.003906 -1.734375 2.113281 -1.550781 2.25 -1.40625 C 2.382812 -1.269531 2.546875 -1.164062 2.734375 -1.09375 C 2.921875 -1.03125 3.128906 -1 3.359375 -1 C 3.578125 -1 3.769531 -1.023438 3.9375 -1.078125 C 4.101562 -1.128906 4.242188 -1.1875 4.359375 -1.25 C 4.484375 -1.3125 4.59375 -1.367188 4.6875 -1.421875 C 4.78125 -1.472656 4.867188 -1.5 4.953125 -1.5 C 5.078125 -1.5 5.164062 -1.457031 5.21875 -1.375 L 5.625 -0.859375 C 5.46875 -0.679688 5.289062 -0.53125 5.09375 -0.40625 C 4.90625 -0.28125 4.707031 -0.179688 4.5 -0.109375 C 4.289062 -0.0351562 4.078125 0.0078125 3.859375 0.03125 C 3.640625 0.0625 3.429688 0.078125 3.234375 0.078125 C 2.828125 0.078125 2.445312 0.015625 2.09375 -0.109375 C 1.75 -0.242188 1.445312 -0.441406 1.1875 -0.703125 C 0.9375 -0.972656 0.738281 -1.300781 0.59375 -1.6875 C 0.445312 -2.070312 0.375 -2.519531 0.375 -3.03125 C 0.375 -3.425781 0.4375 -3.796875 0.5625 -4.140625 C 0.695312 -4.492188 0.878906 -4.796875 1.109375 -5.046875 C 1.347656 -5.304688 1.640625 -5.507812 1.984375 -5.65625 C 2.335938 -5.8125 2.726562 -5.890625 3.15625 -5.890625 C 3.519531 -5.890625 3.859375 -5.832031 4.171875 -5.71875 C 4.484375 -5.601562 4.75 -5.429688 4.96875 -5.203125 C 5.195312 -4.984375 5.375 -4.707031 5.5 -4.375 C 5.625 -4.050781 5.6875 -3.679688 5.6875 -3.265625 C 5.6875 -3.054688 5.660156 -2.910156 5.609375 -2.828125 C 5.566406 -2.753906 5.484375 -2.71875 5.359375 -2.71875 Z M 1.765625 -2.71875 "/></g></g></g><g fill="#ffffff" fill-opacity="1"><g transform="translate(47.372609, 56.249371)"><g/></g></g><g fill="#ffffff" fill-opacity="1"><g transform="translate(50.120587, 56.249371)"><g><path d="M 3.375 -4.28125 C 3.664062 -4.28125 3.914062 -4.316406 4.125 -4.390625 C 4.34375 -4.460938 4.519531 -4.5625 4.65625 -4.6875 C 4.789062 -4.8125 4.890625 -4.960938 4.953125 -5.140625 C 5.023438 -5.316406 5.0625 -5.507812 5.0625 -5.71875 C 5.0625 -6.125 4.925781 -6.4375 4.65625 -6.65625 C 4.382812 -6.882812 3.96875 -7 3.40625 -7 L 2.4375 -7 L 2.4375 -4.28125 Z M 7.296875 0 L 5.921875 0 C 5.660156 0 5.472656 -0.101562 5.359375 -0.3125 L 3.640625 -2.921875 C 3.578125 -3.023438 3.503906 -3.097656 3.421875 -3.140625 C 3.347656 -3.179688 3.234375 -3.203125 3.078125 -3.203125 L 2.4375 -3.203125 L 2.4375 0 L 0.90625 0 L 0.90625 -8.171875 L 3.40625 -8.171875 C 3.957031 -8.171875 4.429688 -8.113281 4.828125 -8 C 5.234375 -7.882812 5.5625 -7.722656 5.8125 -7.515625 C 6.0625 -7.316406 6.25 -7.070312 6.375 -6.78125 C 6.5 -6.488281 6.5625 -6.171875 6.5625 -5.828125 C 6.5625 -5.546875 6.519531 -5.28125 6.4375 -5.03125 C 6.351562 -4.789062 6.234375 -4.570312 6.078125 -4.375 C 5.929688 -4.175781 5.742188 -4 5.515625 -3.84375 C 5.296875 -3.695312 5.039062 -3.582031 4.75 -3.5 C 4.84375 -3.4375 4.929688 -3.363281 5.015625 -3.28125 C 5.097656 -3.207031 5.175781 -3.117188 5.25 -3.015625 Z M 7.296875 0 "/></g></g></g><g fill="#ffffff" fill-opacity="1"><g transform="translate(57.391979, 56.249371)"><g><path d="M 3.265625 -5.890625 C 3.691406 -5.890625 4.078125 -5.816406 4.421875 -5.671875 C 4.773438 -5.535156 5.078125 -5.335938 5.328125 -5.078125 C 5.585938 -4.828125 5.785156 -4.515625 5.921875 -4.140625 C 6.054688 -3.773438 6.125 -3.363281 6.125 -2.90625 C 6.125 -2.445312 6.054688 -2.03125 5.921875 -1.65625 C 5.785156 -1.289062 5.585938 -0.976562 5.328125 -0.71875 C 5.078125 -0.457031 4.773438 -0.257812 4.421875 -0.125 C 4.078125 0.0078125 3.691406 0.078125 3.265625 0.078125 C 2.828125 0.078125 2.429688 0.0078125 2.078125 -0.125 C 1.722656 -0.257812 1.421875 -0.457031 1.171875 -0.71875 C 0.921875 -0.976562 0.722656 -1.289062 0.578125 -1.65625 C 0.441406 -2.03125 0.375 -2.445312 0.375 -2.90625 C 0.375 -3.363281 0.441406 -3.773438 0.578125 -4.140625 C 0.722656 -4.515625 0.921875 -4.828125 1.171875 -5.078125 C 1.421875 -5.335938 1.722656 -5.535156 2.078125 -5.671875 C 2.429688 -5.816406 2.828125 -5.890625 3.265625 -5.890625 Z M 3.265625 -0.984375 C 3.742188 -0.984375 4.097656 -1.144531 4.328125 -1.46875 C 4.554688 -1.800781 4.671875 -2.28125 4.671875 -2.90625 C 4.671875 -3.53125 4.554688 -4.003906 4.328125 -4.328125 C 4.097656 -4.660156 3.742188 -4.828125 3.265625 -4.828125 C 2.765625 -4.828125 2.394531 -4.660156 2.15625 -4.328125 C 1.925781 -3.992188 1.8125 -3.519531 1.8125 -2.90625 C 1.8125 -2.28125 1.925781 -1.800781 2.15625 -1.46875 C 2.394531 -1.144531 2.765625 -0.984375 3.265625 -0.984375 Z M 3.265625 -0.984375 "/></g></g></g><g fill="#ffffff" fill-opacity="1"><g transform="translate(63.888744, 56.249371)"><g><path d="M 2.09375 -1.5 C 2.25 -1.3125 2.421875 -1.175781 2.609375 -1.09375 C 2.796875 -1.019531 2.992188 -0.984375 3.203125 -0.984375 C 3.410156 -0.984375 3.597656 -1.019531 3.765625 -1.09375 C 3.941406 -1.164062 4.085938 -1.285156 4.203125 -1.453125 C 4.328125 -1.617188 4.421875 -1.828125 4.484375 -2.078125 C 4.554688 -2.335938 4.59375 -2.644531 4.59375 -3 C 4.59375 -3.632812 4.484375 -4.09375 4.265625 -4.375 C 4.054688 -4.664062 3.753906 -4.8125 3.359375 -4.8125 C 3.085938 -4.8125 2.851562 -4.75 2.65625 -4.625 C 2.457031 -4.5 2.269531 -4.328125 2.09375 -4.109375 Z M 2.09375 -5.09375 C 2.320312 -5.332031 2.578125 -5.523438 2.859375 -5.671875 C 3.148438 -5.816406 3.476562 -5.890625 3.84375 -5.890625 C 4.175781 -5.890625 4.476562 -5.820312 4.75 -5.6875 C 5.019531 -5.5625 5.25 -5.375 5.4375 -5.125 C 5.625 -4.875 5.769531 -4.570312 5.875 -4.21875 C 5.976562 -3.875 6.03125 -3.484375 6.03125 -3.046875 C 6.03125 -2.578125 5.96875 -2.148438 5.84375 -1.765625 C 5.726562 -1.378906 5.5625 -1.050781 5.34375 -0.78125 C 5.132812 -0.507812 4.875 -0.296875 4.5625 -0.140625 C 4.257812 0.00390625 3.921875 0.078125 3.546875 0.078125 C 3.367188 0.078125 3.207031 0.0625 3.0625 0.03125 C 2.914062 0 2.78125 -0.046875 2.65625 -0.109375 C 2.53125 -0.179688 2.414062 -0.257812 2.3125 -0.34375 C 2.207031 -0.4375 2.109375 -0.539062 2.015625 -0.65625 L 1.953125 -0.265625 C 1.929688 -0.171875 1.890625 -0.101562 1.828125 -0.0625 C 1.773438 -0.0195312 1.703125 0 1.609375 0 L 0.6875 0 L 0.6875 -8.40625 L 2.09375 -8.40625 Z M 2.09375 -5.09375 "/></g></g></g><g fill="#ffffff" fill-opacity="1"><g transform="translate(70.30635, 56.249371)"><g><path d="M 2.140625 -5.796875 L 2.140625 0 L 0.734375 0 L 0.734375 -5.796875 Z M 2.328125 -7.5 C 2.328125 -7.375 2.300781 -7.257812 2.25 -7.15625 C 2.207031 -7.050781 2.144531 -6.957031 2.0625 -6.875 C 1.976562 -6.800781 1.878906 -6.738281 1.765625 -6.6875 C 1.660156 -6.644531 1.546875 -6.625 1.421875 -6.625 C 1.304688 -6.625 1.191406 -6.644531 1.078125 -6.6875 C 0.972656 -6.738281 0.878906 -6.800781 0.796875 -6.875 C 0.722656 -6.957031 0.660156 -7.050781 0.609375 -7.15625 C 0.566406 -7.257812 0.546875 -7.375 0.546875 -7.5 C 0.546875 -7.625 0.566406 -7.738281 0.609375 -7.84375 C 0.660156 -7.957031 0.722656 -8.050781 0.796875 -8.125 C 0.878906 -8.207031 0.972656 -8.269531 1.078125 -8.3125 C 1.191406 -8.363281 1.304688 -8.390625 1.421875 -8.390625 C 1.546875 -8.390625 1.660156 -8.363281 1.765625 -8.3125 C 1.878906 -8.269531 1.976562 -8.207031 2.0625 -8.125 C 2.144531 -8.050781 2.207031 -7.957031 2.25 -7.84375 C 2.300781 -7.738281 2.328125 -7.625 2.328125 -7.5 Z M 2.328125 -7.5 "/></g></g></g><g fill="#ffffff" fill-opacity="1"><g transform="translate(73.178726, 56.249371)"><g><path d="M 2 -5.09375 C 2.113281 -5.207031 2.234375 -5.3125 2.359375 -5.40625 C 2.492188 -5.507812 2.632812 -5.597656 2.78125 -5.671875 C 2.925781 -5.742188 3.082031 -5.796875 3.25 -5.828125 C 3.414062 -5.867188 3.597656 -5.890625 3.796875 -5.890625 C 4.109375 -5.890625 4.382812 -5.835938 4.625 -5.734375 C 4.875 -5.628906 5.082031 -5.476562 5.25 -5.28125 C 5.414062 -5.082031 5.539062 -4.847656 5.625 -4.578125 C 5.707031 -4.316406 5.75 -4.019531 5.75 -3.6875 L 5.75 0 L 4.34375 0 L 4.34375 -3.6875 C 4.34375 -4.039062 4.257812 -4.316406 4.09375 -4.515625 C 3.9375 -4.710938 3.691406 -4.8125 3.359375 -4.8125 C 3.117188 -4.8125 2.894531 -4.753906 2.6875 -4.640625 C 2.476562 -4.535156 2.28125 -4.390625 2.09375 -4.203125 L 2.09375 0 L 0.6875 0 L 0.6875 -5.796875 L 1.546875 -5.796875 C 1.722656 -5.796875 1.84375 -5.710938 1.90625 -5.546875 Z M 2 -5.09375 "/></g></g></g><g fill="#ffffff" fill-opacity="1"><g transform="translate(79.556746, 56.249371)"><g><path d="M 4.234375 -4.671875 C 4.191406 -4.609375 4.148438 -4.566406 4.109375 -4.546875 C 4.066406 -4.523438 4.015625 -4.515625 3.953125 -4.515625 C 3.890625 -4.515625 3.816406 -4.53125 3.734375 -4.5625 C 3.660156 -4.601562 3.570312 -4.644531 3.46875 -4.6875 C 3.363281 -4.738281 3.242188 -4.78125 3.109375 -4.8125 C 2.984375 -4.851562 2.832031 -4.875 2.65625 -4.875 C 2.382812 -4.875 2.171875 -4.816406 2.015625 -4.703125 C 1.859375 -4.585938 1.78125 -4.429688 1.78125 -4.234375 C 1.78125 -4.117188 1.816406 -4.015625 1.890625 -3.921875 C 1.972656 -3.835938 2.082031 -3.765625 2.21875 -3.703125 C 2.351562 -3.640625 2.503906 -3.582031 2.671875 -3.53125 C 2.847656 -3.476562 3.019531 -3.421875 3.1875 -3.359375 C 3.363281 -3.304688 3.535156 -3.238281 3.703125 -3.15625 C 3.878906 -3.082031 4.03125 -2.984375 4.15625 -2.859375 C 4.289062 -2.742188 4.398438 -2.601562 4.484375 -2.4375 C 4.566406 -2.269531 4.609375 -2.070312 4.609375 -1.84375 C 4.609375 -1.5625 4.554688 -1.300781 4.453125 -1.0625 C 4.359375 -0.832031 4.210938 -0.628906 4.015625 -0.453125 C 3.816406 -0.285156 3.570312 -0.148438 3.28125 -0.046875 C 3 0.046875 2.671875 0.09375 2.296875 0.09375 C 2.085938 0.09375 1.890625 0.0703125 1.703125 0.03125 C 1.515625 0 1.332031 -0.046875 1.15625 -0.109375 C 0.976562 -0.171875 0.816406 -0.242188 0.671875 -0.328125 C 0.523438 -0.421875 0.394531 -0.519531 0.28125 -0.625 L 0.59375 -1.15625 C 0.632812 -1.21875 0.679688 -1.265625 0.734375 -1.296875 C 0.796875 -1.335938 0.875 -1.359375 0.96875 -1.359375 C 1.050781 -1.359375 1.128906 -1.332031 1.203125 -1.28125 C 1.285156 -1.226562 1.375 -1.171875 1.46875 -1.109375 C 1.570312 -1.054688 1.691406 -1.003906 1.828125 -0.953125 C 1.972656 -0.910156 2.148438 -0.890625 2.359375 -0.890625 C 2.523438 -0.890625 2.664062 -0.90625 2.78125 -0.9375 C 2.90625 -0.976562 3.003906 -1.03125 3.078125 -1.09375 C 3.160156 -1.164062 3.21875 -1.242188 3.25 -1.328125 C 3.28125 -1.410156 3.296875 -1.5 3.296875 -1.59375 C 3.296875 -1.726562 3.253906 -1.835938 3.171875 -1.921875 C 3.097656 -2.003906 2.992188 -2.078125 2.859375 -2.140625 C 2.722656 -2.210938 2.566406 -2.269531 2.390625 -2.3125 C 2.222656 -2.363281 2.050781 -2.421875 1.875 -2.484375 C 1.695312 -2.546875 1.519531 -2.617188 1.34375 -2.703125 C 1.175781 -2.785156 1.023438 -2.890625 0.890625 -3.015625 C 0.753906 -3.140625 0.644531 -3.289062 0.5625 -3.46875 C 0.488281 -3.644531 0.453125 -3.863281 0.453125 -4.125 C 0.453125 -4.363281 0.5 -4.585938 0.59375 -4.796875 C 0.6875 -5.015625 0.820312 -5.203125 1 -5.359375 C 1.1875 -5.523438 1.414062 -5.65625 1.6875 -5.75 C 1.957031 -5.84375 2.273438 -5.890625 2.640625 -5.890625 C 3.035156 -5.890625 3.394531 -5.820312 3.71875 -5.6875 C 4.050781 -5.5625 4.328125 -5.390625 4.546875 -5.171875 Z M 4.234375 -4.671875 "/></g></g></g><g fill="#ffffff" fill-opacity="1"><g transform="translate(84.526858, 56.249371)"><g><path d="M 3.265625 -5.890625 C 3.691406 -5.890625 4.078125 -5.816406 4.421875 -5.671875 C 4.773438 -5.535156 5.078125 -5.335938 5.328125 -5.078125 C 5.585938 -4.828125 5.785156 -4.515625 5.921875 -4.140625 C 6.054688 -3.773438 6.125 -3.363281 6.125 -2.90625 C 6.125 -2.445312 6.054688 -2.03125 5.921875 -1.65625 C 5.785156 -1.289062 5.585938 -0.976562 5.328125 -0.71875 C 5.078125 -0.457031 4.773438 -0.257812 4.421875 -0.125 C 4.078125 0.0078125 3.691406 0.078125 3.265625 0.078125 C 2.828125 0.078125 2.429688 0.0078125 2.078125 -0.125 C 1.722656 -0.257812 1.421875 -0.457031 1.171875 -0.71875 C 0.921875 -0.976562 0.722656 -1.289062 0.578125 -1.65625 C 0.441406 -2.03125 0.375 -2.445312 0.375 -2.90625 C 0.375 -3.363281 0.441406 -3.773438 0.578125 -4.140625 C 0.722656 -4.515625 0.921875 -4.828125 1.171875 -5.078125 C 1.421875 -5.335938 1.722656 -5.535156 2.078125 -5.671875 C 2.429688 -5.816406 2.828125 -5.890625 3.265625 -5.890625 Z M 3.265625 -0.984375 C 3.742188 -0.984375 4.097656 -1.144531 4.328125 -1.46875 C 4.554688 -1.800781 4.671875 -2.28125 4.671875 -2.90625 C 4.671875 -3.53125 4.554688 -4.003906 4.328125 -4.328125 C 4.097656 -4.660156 3.742188 -4.828125 3.265625 -4.828125 C 2.765625 -4.828125 2.394531 -4.660156 2.15625 -4.328125 C 1.925781 -3.992188 1.8125 -3.519531 1.8125 -2.90625 C 1.8125 -2.28125 1.925781 -1.800781 2.15625 -1.46875 C 2.394531 -1.144531 2.765625 -0.984375 3.265625 -0.984375 Z M 3.265625 -0.984375 "/></g></g></g><g fill="#ffffff" fill-opacity="1"><g transform="translate(91.023623, 56.249371)"><g><path d="M 2 -5.09375 C 2.113281 -5.207031 2.234375 -5.3125 2.359375 -5.40625 C 2.492188 -5.507812 2.632812 -5.597656 2.78125 -5.671875 C 2.925781 -5.742188 3.082031 -5.796875 3.25 -5.828125 C 3.414062 -5.867188 3.597656 -5.890625 3.796875 -5.890625 C 4.109375 -5.890625 4.382812 -5.835938 4.625 -5.734375 C 4.875 -5.628906 5.082031 -5.476562 5.25 -5.28125 C 5.414062 -5.082031 5.539062 -4.847656 5.625 -4.578125 C 5.707031 -4.316406 5.75 -4.019531 5.75 -3.6875 L 5.75 0 L 4.34375 0 L 4.34375 -3.6875 C 4.34375 -4.039062 4.257812 -4.316406 4.09375 -4.515625 C 3.9375 -4.710938 3.691406 -4.8125 3.359375 -4.8125 C 3.117188 -4.8125 2.894531 -4.753906 2.6875 -4.640625 C 2.476562 -4.535156 2.28125 -4.390625 2.09375 -4.203125 L 2.09375 0 L 0.6875 0 L 0.6875 -5.796875 L 1.546875 -5.796875 C 1.722656 -5.796875 1.84375 -5.710938 1.90625 -5.546875 Z M 2 -5.09375 "/></g></g></g><g fill="#ffffff" fill-opacity="1"><g transform="translate(97.401644, 56.249371)"><g/></g></g><g fill="#ffffff" fill-opacity="1"><g transform="translate(100.149622, 56.249371)"><g><path d="M 8.171875 -4.09375 C 8.171875 -3.488281 8.070312 -2.9375 7.875 -2.4375 C 7.675781 -1.9375 7.394531 -1.503906 7.03125 -1.140625 C 6.664062 -0.773438 6.226562 -0.492188 5.71875 -0.296875 C 5.207031 -0.0976562 4.644531 0 4.03125 0 L 0.90625 0 L 0.90625 -8.171875 L 4.03125 -8.171875 C 4.644531 -8.171875 5.207031 -8.070312 5.71875 -7.875 C 6.226562 -7.675781 6.664062 -7.394531 7.03125 -7.03125 C 7.394531 -6.675781 7.675781 -6.242188 7.875 -5.734375 C 8.070312 -5.234375 8.171875 -4.6875 8.171875 -4.09375 Z M 6.609375 -4.09375 C 6.609375 -4.539062 6.546875 -4.941406 6.421875 -5.296875 C 6.304688 -5.648438 6.132812 -5.953125 5.90625 -6.203125 C 5.6875 -6.453125 5.414062 -6.640625 5.09375 -6.765625 C 4.78125 -6.898438 4.425781 -6.96875 4.03125 -6.96875 L 2.4375 -6.96875 L 2.4375 -1.203125 L 4.03125 -1.203125 C 4.425781 -1.203125 4.78125 -1.269531 5.09375 -1.40625 C 5.414062 -1.539062 5.6875 -1.726562 5.90625 -1.96875 C 6.132812 -2.21875 6.304688 -2.519531 6.421875 -2.875 C 6.546875 -3.238281 6.609375 -3.644531 6.609375 -4.09375 Z M 6.609375 -4.09375 "/></g></g></g><g fill="#ffffff" fill-opacity="1"><g transform="translate(108.749776, 56.249371)"><g><path d="M 4.421875 -3.5625 C 4.421875 -3.75 4.394531 -3.921875 4.34375 -4.078125 C 4.300781 -4.242188 4.226562 -4.382812 4.125 -4.5 C 4.019531 -4.625 3.890625 -4.71875 3.734375 -4.78125 C 3.578125 -4.851562 3.394531 -4.890625 3.1875 -4.890625 C 2.78125 -4.890625 2.460938 -4.773438 2.234375 -4.546875 C 2.003906 -4.316406 1.859375 -3.988281 1.796875 -3.5625 Z M 1.765625 -2.71875 C 1.785156 -2.425781 1.835938 -2.171875 1.921875 -1.953125 C 2.003906 -1.734375 2.113281 -1.550781 2.25 -1.40625 C 2.382812 -1.269531 2.546875 -1.164062 2.734375 -1.09375 C 2.921875 -1.03125 3.128906 -1 3.359375 -1 C 3.578125 -1 3.769531 -1.023438 3.9375 -1.078125 C 4.101562 -1.128906 4.242188 -1.1875 4.359375 -1.25 C 4.484375 -1.3125 4.59375 -1.367188 4.6875 -1.421875 C 4.78125 -1.472656 4.867188 -1.5 4.953125 -1.5 C 5.078125 -1.5 5.164062 -1.457031 5.21875 -1.375 L 5.625 -0.859375 C 5.46875 -0.679688 5.289062 -0.53125 5.09375 -0.40625 C 4.90625 -0.28125 4.707031 -0.179688 4.5 -0.109375 C 4.289062 -0.0351562 4.078125 0.0078125 3.859375 0.03125 C 3.640625 0.0625 3.429688 0.078125 3.234375 0.078125 C 2.828125 0.078125 2.445312 0.015625 2.09375 -0.109375 C 1.75 -0.242188 1.445312 -0.441406 1.1875 -0.703125 C 0.9375 -0.972656 0.738281 -1.300781 0.59375 -1.6875 C 0.445312 -2.070312 0.375 -2.519531 0.375 -3.03125 C 0.375 -3.425781 0.4375 -3.796875 0.5625 -4.140625 C 0.695312 -4.492188 0.878906 -4.796875 1.109375 -5.046875 C 1.347656 -5.304688 1.640625 -5.507812 1.984375 -5.65625 C 2.335938 -5.8125 2.726562 -5.890625 3.15625 -5.890625 C 3.519531 -5.890625 3.859375 -5.832031 4.171875 -5.71875 C 4.484375 -5.601562 4.75 -5.429688 4.96875 -5.203125 C 5.195312 -4.984375 5.375 -4.707031 5.5 -4.375 C 5.625 -4.050781 5.6875 -3.679688 5.6875 -3.265625 C 5.6875 -3.054688 5.660156 -2.910156 5.609375 -2.828125 C 5.566406 -2.753906 5.484375 -2.71875 5.359375 -2.71875 Z M 1.765625 -2.71875 "/></g></g></g><g fill="#ffffff" fill-opacity="1"><g transform="translate(114.788537, 56.249371)"><g><path d="M 5.921875 -5.796875 L 3.625 0 L 2.359375 0 L 0.046875 -5.796875 L 1.203125 -5.796875 C 1.304688 -5.796875 1.394531 -5.769531 1.46875 -5.71875 C 1.539062 -5.675781 1.585938 -5.617188 1.609375 -5.546875 L 2.71875 -2.4375 C 2.78125 -2.257812 2.832031 -2.082031 2.875 -1.90625 C 2.925781 -1.738281 2.96875 -1.566406 3 -1.390625 C 3.039062 -1.566406 3.082031 -1.738281 3.125 -1.90625 C 3.175781 -2.082031 3.234375 -2.257812 3.296875 -2.4375 L 4.4375 -5.546875 C 4.457031 -5.617188 4.5 -5.675781 4.5625 -5.71875 C 4.632812 -5.769531 4.71875 -5.796875 4.8125 -5.796875 Z M 5.921875 -5.796875 "/></g></g></g></svg>